<svg xmlns="http://www.w3.org/2000/svg" xmlns:xlink="http://www.w3.org/1999/xlink" viewBox="0 0 400 400" width="400" height="400" preserveAspectRatio="xMidYMid meet" style="width: 100%; height: 100%; transform: translate3d(0px, 0px, 0px); content-visibility: visible;"><defs><clipPath id="__lottie_element_30842"><rect width="400" height="400" x="0" y="0"></rect></clipPath></defs><g clip-path="url(#__lottie_element_30842)"><g transform="matrix(0.982824981212616,-0.18454010784626007,0.18454010784626007,0.982824981212616,196.8280029296875,212.7169952392578)" opacity="1" style="display: block;"><g opacity="1" transform="matrix(1,0,0,1,0,0)"><path stroke-linecap="round" stroke-linejoin="round" fill-opacity="0" stroke="rgb(88,91,212)" stroke-opacity="1" stroke-width="5" d=" M1.3049999475479126,-129.99400329589844 C-0.7390000224113464,-121.80400085449219 -6.519999980926514,-98.64199829101562 -6.519999980926514,-98.64199829101562 C-11.050000190734863,-99.67500305175781 -15.494999885559082,-100.69300079345703 -19.812000274658203,-101.76599884033203 C-19.812000274658203,-101.76599884033203 -19.788000106811523,-101.87300109863281 -19.788000106811523,-101.87300109863281 C-19.788000106811523,-101.87300109863281 -48.49300003051758,-109.03900146484375 -48.49300003051758,-109.03900146484375 C-48.49300003051758,-109.03900146484375 -54.03099822998047,-86.80999755859375 -54.03099822998047,-86.80999755859375 C-54.03099822998047,-86.80999755859375 -38.58700180053711,-83.27300262451172 -38.9119987487793,-83.0530014038086 C-30.48200035095215,-80.94999694824219 -28.959999084472656,-75.37000274658203 -29.21299934387207,-70.947998046875 C-29.21299934387207,-70.947998046875 -52.573001861572266,22.715999603271484 -52.573001861572266,22.715999603271484 C-53.60599899291992,25.277999877929688 -56.21799850463867,29.117000579833984 -62.11199951171875,27.660999298095703 C-61.90399932861328,27.961999893188477 -77.23999786376953,23.885000228881836 -77.23999786376953,23.885000228881836 C-77.23999786376953,23.885000228881836 -87.57499694824219,47.70800018310547 -87.57499694824219,47.70800018310547 C-87.57499694824219,47.70800018310547 -60.48699951171875,54.45800018310547 -60.48699951171875,54.45800018310547 C-55.448001861572266,55.72200012207031 -50.5099983215332,57.04399871826172 -45.64799880981445,58.2869987487793 C-45.64799880981445,58.2869987487793 -54.26300048828125,92.87200164794922 -54.26300048828125,92.87200164794922 C-54.26300048828125,92.87200164794922 -33.47200012207031,98.05599975585938 -33.47200012207031,98.05599975585938 C-33.47200012207031,98.05599975585938 -24.94099998474121,63.84199905395508 -24.94099998474121,63.84199905395508 C-19.479000091552734,65.3219985961914 -13.859999656677246,66.77999877929688 -8.352999687194824,68.14700317382812 C-8.352999687194824,68.14700317382812 -16.854999542236328,102.20099639892578 -16.854999542236328,102.20099639892578 C-16.854999542236328,102.20099639892578 3.9609999656677246,107.38800048828125 3.9609999656677246,107.38800048828125 C3.9609999656677246,107.38800048828125 12.572999954223633,72.87000274658203 12.572999954223633,72.87000274658203 C48.06800079345703,79.58699798583984 74.75800323486328,76.87699890136719 85.99199676513672,44.77799987792969 C95.0459976196289,18.934999465942383 85.54000091552734,4.02400016784668 66.86499786376953,-5.697000026702881 C80.46499633789062,-8.831000328063965 90.71099853515625,-17.774999618530273 93.44499969482422,-36.25400161743164 M5.447999954223633,44.31399917602539 C-4.171999931335449,42.68600082397461 -13.086999893188477,40.06100082397461 -18.177000045776367,38.797000885009766 C-18.177000045776367,38.797000885009766 -6.744999885559082,-7.017000198364258 -6.744999885559082,-7.017000198364258 C7.361999988555908,-3.496000051498413 52.61000061035156,3.4739999771118164 45.88600158691406,30.429000854492188 M17.930999755859375,-23.429000854492188 C9.991999626159668,-24.749000549316406 2.677000045776367,-26.944000244140625 -1.5169999599456787,-27.98900032043457 C-1.5169999599456787,-27.98900032043457 8.845000267028809,-69.54299926757812 8.845000267028809,-69.54299926757812 C20.594999313354492,-66.61499786376953 58.4370002746582,-61.1510009765625 52.323001861572266,-36.62699890136719"></path></g></g></g></svg>